<?xml version="1.0" encoding="UTF-8" standalone="no"?>
<!DOCTYPE svg PUBLIC "-//W3C//DTD SVG 1.1//EN"
 "http://www.w3.org/Graphics/SVG/1.1/DTD/svg11.dtd">
<!-- Generated by graphviz version 2.40.1 (20161225.0304)
 -->
<!-- Title: %3 Pages: 1 -->
<svg width="1697pt" height="332pt"
 viewBox="0.00 0.00 1697.04 332.00" xmlns="http://www.w3.org/2000/svg" xmlns:xlink="http://www.w3.org/1999/xlink">
<g id="graph0" class="graph" transform="scale(1 1) rotate(0) translate(4 328)">
<title>%3</title>
<polygon fill="#ffffff" stroke="transparent" points="-4,4 -4,-328 1693.0433,-328 1693.0433,4 -4,4"/>
<!-- [root] null_resource.ansible&#45;provision -->
<g id="node1" class="node">
<title>[root] null_resource.ansible&#45;provision</title>
<polygon fill="none" stroke="#000000" points="596,-252 356,-252 356,-216 596,-216 596,-252"/>
<text text-anchor="middle" x="476" y="-230.3" font-family="Times,serif" font-size="14.00" fill="#000000">null_resource.ansible&#45;provision</text>
</g>
<!-- [root] openstack_compute_instance_v2.vps -->
<g id="node3" class="node">
<title>[root] openstack_compute_instance_v2.vps</title>
<polygon fill="none" stroke="#000000" points="617,-180 335,-180 335,-144 617,-144 617,-180"/>
<text text-anchor="middle" x="476" y="-158.3" font-family="Times,serif" font-size="14.00" fill="#000000">openstack_compute_instance_v2.vps</text>
</g>
<!-- [root] null_resource.ansible&#45;provision&#45;&gt;[root] openstack_compute_instance_v2.vps -->
<g id="edge1" class="edge">
<title>[root] null_resource.ansible&#45;provision&#45;&gt;[root] openstack_compute_instance_v2.vps</title>
<path fill="none" stroke="#000000" d="M476,-215.8314C476,-208.131 476,-198.9743 476,-190.4166"/>
<polygon fill="#000000" stroke="#000000" points="479.5001,-190.4132 476,-180.4133 472.5001,-190.4133 479.5001,-190.4132"/>
</g>
<!-- [root] provider.null -->
<g id="node11" class="node">
<title>[root] provider.null</title>
<polygon fill="none" stroke="#000000" points="219,-180 120.8001,-162 219,-144 317.1999,-162 219,-180"/>
<text text-anchor="middle" x="219" y="-158.3" font-family="Times,serif" font-size="14.00" fill="#000000">provider.null</text>
</g>
<!-- [root] null_resource.ansible&#45;provision&#45;&gt;[root] provider.null -->
<g id="edge2" class="edge">
<title>[root] null_resource.ansible&#45;provision&#45;&gt;[root] provider.null</title>
<path fill="none" stroke="#000000" d="M411.4798,-215.9243C366.837,-203.4174 308.3623,-187.0353 267.6299,-175.6239"/>
<polygon fill="#000000" stroke="#000000" points="268.5075,-172.2351 257.934,-172.9076 266.6191,-178.9756 268.5075,-172.2351"/>
</g>
<!-- [root] openstack_compute_instance_v2.test&#45;network -->
<g id="node2" class="node">
<title>[root] openstack_compute_instance_v2.test&#45;network</title>
<polygon fill="none" stroke="#000000" points="984.5,-180 635.5,-180 635.5,-144 984.5,-144 984.5,-180"/>
<text text-anchor="middle" x="810" y="-158.3" font-family="Times,serif" font-size="14.00" fill="#000000">openstack_compute_instance_v2.test&#45;network</text>
</g>
<!-- [root] openstack_compute_keypair_v2.my_keypair -->
<g id="node4" class="node">
<title>[root] openstack_compute_keypair_v2.my_keypair</title>
<polygon fill="none" stroke="#000000" points="334,-108 0,-108 0,-72 334,-72 334,-108"/>
<text text-anchor="middle" x="167" y="-86.3" font-family="Times,serif" font-size="14.00" fill="#000000">openstack_compute_keypair_v2.my_keypair</text>
</g>
<!-- [root] openstack_compute_instance_v2.test&#45;network&#45;&gt;[root] openstack_compute_keypair_v2.my_keypair -->
<g id="edge3" class="edge">
<title>[root] openstack_compute_instance_v2.test&#45;network&#45;&gt;[root] openstack_compute_keypair_v2.my_keypair</title>
<path fill="none" stroke="#000000" d="M648.9884,-143.9707C554.2285,-133.36 434.451,-119.9479 338.0063,-109.1485"/>
<polygon fill="#000000" stroke="#000000" points="338.1842,-105.6466 327.8568,-108.012 337.4052,-112.6031 338.1842,-105.6466"/>
</g>
<!-- [root] openstack_compute_secgroup_v2.terraform -->
<g id="node5" class="node">
<title>[root] openstack_compute_secgroup_v2.terraform</title>
<polygon fill="none" stroke="#000000" points="950,-108 618,-108 618,-72 950,-72 950,-108"/>
<text text-anchor="middle" x="784" y="-86.3" font-family="Times,serif" font-size="14.00" fill="#000000">openstack_compute_secgroup_v2.terraform</text>
</g>
<!-- [root] openstack_compute_instance_v2.test&#45;network&#45;&gt;[root] openstack_compute_secgroup_v2.terraform -->
<g id="edge4" class="edge">
<title>[root] openstack_compute_instance_v2.test&#45;network&#45;&gt;[root] openstack_compute_secgroup_v2.terraform</title>
<path fill="none" stroke="#000000" d="M803.4391,-143.8314C800.5973,-135.9617 797.2063,-126.5712 794.0581,-117.8533"/>
<polygon fill="#000000" stroke="#000000" points="797.3377,-116.63 790.6492,-108.4133 790.7538,-119.0076 797.3377,-116.63"/>
</g>
<!-- [root] openstack_networking_network_v2.network_1 -->
<g id="node6" class="node">
<title>[root] openstack_networking_network_v2.network_1</title>
<polygon fill="none" stroke="#000000" points="1319.5,-108 968.5,-108 968.5,-72 1319.5,-72 1319.5,-108"/>
<text text-anchor="middle" x="1144" y="-86.3" font-family="Times,serif" font-size="14.00" fill="#000000">openstack_networking_network_v2.network_1</text>
</g>
<!-- [root] openstack_compute_instance_v2.test&#45;network&#45;&gt;[root] openstack_networking_network_v2.network_1 -->
<g id="edge5" class="edge">
<title>[root] openstack_compute_instance_v2.test&#45;network&#45;&gt;[root] openstack_networking_network_v2.network_1</title>
<path fill="none" stroke="#000000" d="M893.8512,-143.9243C941.4873,-133.6554 1001.2416,-120.7743 1050.4019,-110.1768"/>
<polygon fill="#000000" stroke="#000000" points="1051.3662,-113.5494 1060.4041,-108.0207 1049.891,-106.7066 1051.3662,-113.5494"/>
</g>
<!-- [root] var.id_ip_flottante -->
<g id="node13" class="node">
<title>[root] var.id_ip_flottante</title>
<ellipse fill="none" stroke="#000000" cx="476" cy="-90" rx="124.2781" ry="18"/>
<text text-anchor="middle" x="476" y="-86.3" font-family="Times,serif" font-size="14.00" fill="#000000">[root] var.id_ip_flottante</text>
</g>
<!-- [root] openstack_compute_instance_v2.test&#45;network&#45;&gt;[root] var.id_ip_flottante -->
<g id="edge6" class="edge">
<title>[root] openstack_compute_instance_v2.test&#45;network&#45;&gt;[root] var.id_ip_flottante</title>
<path fill="none" stroke="#000000" d="M726.1488,-143.9243C673.8843,-132.6577 607.0322,-118.2465 555.5894,-107.157"/>
<polygon fill="#000000" stroke="#000000" points="556.0282,-103.6713 545.5152,-104.9853 554.5531,-110.5141 556.0282,-103.6713"/>
</g>
<!-- [root] openstack_compute_instance_v2.vps&#45;&gt;[root] openstack_compute_keypair_v2.my_keypair -->
<g id="edge7" class="edge">
<title>[root] openstack_compute_instance_v2.vps&#45;&gt;[root] openstack_compute_keypair_v2.my_keypair</title>
<path fill="none" stroke="#000000" d="M398.4251,-143.9243C354.5386,-133.6983 299.5343,-120.8818 254.1625,-110.3097"/>
<polygon fill="#000000" stroke="#000000" points="254.8722,-106.8814 244.3388,-108.0207 253.2836,-113.6988 254.8722,-106.8814"/>
</g>
<!-- [root] openstack_compute_instance_v2.vps&#45;&gt;[root] openstack_compute_secgroup_v2.terraform -->
<g id="edge8" class="edge">
<title>[root] openstack_compute_instance_v2.vps&#45;&gt;[root] openstack_compute_secgroup_v2.terraform</title>
<path fill="none" stroke="#000000" d="M553.3238,-143.9243C597.0683,-133.6983 651.8946,-120.8818 697.1196,-110.3097"/>
<polygon fill="#000000" stroke="#000000" points="697.9708,-113.7052 706.9115,-108.0207 696.3773,-106.8889 697.9708,-113.7052"/>
</g>
<!-- [root] openstack_compute_instance_v2.vps&#45;&gt;[root] openstack_networking_network_v2.network_1 -->
<g id="edge9" class="edge">
<title>[root] openstack_compute_instance_v2.vps&#45;&gt;[root] openstack_networking_network_v2.network_1</title>
<path fill="none" stroke="#000000" d="M617.0535,-145.1199C620.4009,-144.7406 623.7203,-144.3667 627,-144 736.7945,-131.7227 859.8082,-118.8388 958.2902,-108.736"/>
<polygon fill="#000000" stroke="#000000" points="958.7575,-112.2065 968.3485,-107.7051 958.0437,-105.243 958.7575,-112.2065"/>
</g>
<!-- [root] openstack_compute_instance_v2.vps&#45;&gt;[root] var.id_ip_flottante -->
<g id="edge10" class="edge">
<title>[root] openstack_compute_instance_v2.vps&#45;&gt;[root] var.id_ip_flottante</title>
<path fill="none" stroke="#000000" d="M476,-143.8314C476,-136.131 476,-126.9743 476,-118.4166"/>
<polygon fill="#000000" stroke="#000000" points="479.5001,-118.4132 476,-108.4133 472.5001,-118.4133 479.5001,-118.4132"/>
</g>
<!-- [root] provider.openstack -->
<g id="node12" class="node">
<title>[root] provider.openstack</title>
<polygon fill="none" stroke="#000000" points="964,-36 822.3995,-18 964,0 1105.6005,-18 964,-36"/>
<text text-anchor="middle" x="964" y="-14.3" font-family="Times,serif" font-size="14.00" fill="#000000">provider.openstack</text>
</g>
<!-- [root] openstack_compute_keypair_v2.my_keypair&#45;&gt;[root] provider.openstack -->
<g id="edge11" class="edge">
<title>[root] openstack_compute_keypair_v2.my_keypair&#45;&gt;[root] provider.openstack</title>
<path fill="none" stroke="#000000" d="M334.2108,-72.837C337.1633,-72.5541 340.0951,-72.2748 343,-72 528.6133,-54.4393 745.6486,-36.058 867.75,-25.9138"/>
<polygon fill="#000000" stroke="#000000" points="868.1436,-29.3933 877.8198,-25.078 867.5645,-22.4173 868.1436,-29.3933"/>
</g>
<!-- [root] var.keypair -->
<g id="node14" class="node">
<title>[root] var.keypair</title>
<ellipse fill="none" stroke="#000000" cx="167" cy="-18" rx="91.784" ry="18"/>
<text text-anchor="middle" x="167" y="-14.3" font-family="Times,serif" font-size="14.00" fill="#000000">[root] var.keypair</text>
</g>
<!-- [root] openstack_compute_keypair_v2.my_keypair&#45;&gt;[root] var.keypair -->
<g id="edge12" class="edge">
<title>[root] openstack_compute_keypair_v2.my_keypair&#45;&gt;[root] var.keypair</title>
<path fill="none" stroke="#000000" d="M167,-71.8314C167,-64.131 167,-54.9743 167,-46.4166"/>
<polygon fill="#000000" stroke="#000000" points="170.5001,-46.4132 167,-36.4133 163.5001,-46.4133 170.5001,-46.4132"/>
</g>
<!-- [root] openstack_compute_secgroup_v2.terraform&#45;&gt;[root] provider.openstack -->
<g id="edge13" class="edge">
<title>[root] openstack_compute_secgroup_v2.terraform&#45;&gt;[root] provider.openstack</title>
<path fill="none" stroke="#000000" d="M829.4216,-71.8314C857.2774,-60.689 892.7555,-46.4978 920.2905,-35.4838"/>
<polygon fill="#000000" stroke="#000000" points="921.6884,-38.6943 929.6732,-31.7307 919.0886,-32.195 921.6884,-38.6943"/>
</g>
<!-- [root] openstack_networking_network_v2.network_1&#45;&gt;[root] provider.openstack -->
<g id="edge14" class="edge">
<title>[root] openstack_networking_network_v2.network_1&#45;&gt;[root] provider.openstack</title>
<path fill="none" stroke="#000000" d="M1098.5784,-71.8314C1070.7226,-60.689 1035.2445,-46.4978 1007.7095,-35.4838"/>
<polygon fill="#000000" stroke="#000000" points="1008.9114,-32.195 998.3268,-31.7307 1006.3116,-38.6943 1008.9114,-32.195"/>
</g>
<!-- [root] openstack_networking_port_v2.port_1 -->
<g id="node7" class="node">
<title>[root] openstack_networking_port_v2.port_1</title>
<polygon fill="none" stroke="#000000" points="1131.5,-252 838.5,-252 838.5,-216 1131.5,-216 1131.5,-252"/>
<text text-anchor="middle" x="985" y="-230.3" font-family="Times,serif" font-size="14.00" fill="#000000">openstack_networking_port_v2.port_1</text>
</g>
<!-- [root] openstack_networking_port_v2.port_1&#45;&gt;[root] openstack_networking_network_v2.network_1 -->
<g id="edge15" class="edge">
<title>[root] openstack_networking_port_v2.port_1&#45;&gt;[root] openstack_networking_network_v2.network_1</title>
<path fill="none" stroke="#000000" d="M1000.3974,-215.8171C1016.7757,-196.9422 1043.8744,-167.0149 1070,-144 1081.9265,-133.4936 1095.8186,-122.9607 1108.3241,-114.0232"/>
<polygon fill="#000000" stroke="#000000" points="1110.5587,-116.7303 1116.7191,-108.1105 1106.5279,-111.0073 1110.5587,-116.7303"/>
</g>
<!-- [root] openstack_networking_router_interface_v2.int_1 -->
<g id="node8" class="node">
<title>[root] openstack_networking_router_interface_v2.int_1</title>
<polygon fill="none" stroke="#000000" points="1518.5,-252 1149.5,-252 1149.5,-216 1518.5,-216 1518.5,-252"/>
<text text-anchor="middle" x="1334" y="-230.3" font-family="Times,serif" font-size="14.00" fill="#000000">openstack_networking_router_interface_v2.int_1</text>
</g>
<!-- [root] openstack_networking_router_v2.router_1 -->
<g id="node9" class="node">
<title>[root] openstack_networking_router_v2.router_1</title>
<polygon fill="none" stroke="#000000" points="1660.5,-108 1337.5,-108 1337.5,-72 1660.5,-72 1660.5,-108"/>
<text text-anchor="middle" x="1499" y="-86.3" font-family="Times,serif" font-size="14.00" fill="#000000">openstack_networking_router_v2.router_1</text>
</g>
<!-- [root] openstack_networking_router_interface_v2.int_1&#45;&gt;[root] openstack_networking_router_v2.router_1 -->
<g id="edge16" class="edge">
<title>[root] openstack_networking_router_interface_v2.int_1&#45;&gt;[root] openstack_networking_router_v2.router_1</title>
<path fill="none" stroke="#000000" d="M1366.5131,-215.8822C1382.7031,-206.1839 1402.1507,-193.4764 1418,-180 1440.739,-160.6654 1463.1718,-135.0919 1478.643,-116.148"/>
<polygon fill="#000000" stroke="#000000" points="1481.4854,-118.1987 1485.0324,-108.2152 1476.0338,-113.8077 1481.4854,-118.1987"/>
</g>
<!-- [root] openstack_networking_subnet_v2.subnet_2 -->
<g id="node10" class="node">
<title>[root] openstack_networking_subnet_v2.subnet_2</title>
<polygon fill="none" stroke="#000000" points="1409,-180 1079,-180 1079,-144 1409,-144 1409,-180"/>
<text text-anchor="middle" x="1244" y="-158.3" font-family="Times,serif" font-size="14.00" fill="#000000">openstack_networking_subnet_v2.subnet_2</text>
</g>
<!-- [root] openstack_networking_router_interface_v2.int_1&#45;&gt;[root] openstack_networking_subnet_v2.subnet_2 -->
<g id="edge17" class="edge">
<title>[root] openstack_networking_router_interface_v2.int_1&#45;&gt;[root] openstack_networking_subnet_v2.subnet_2</title>
<path fill="none" stroke="#000000" d="M1311.2892,-215.8314C1300.204,-206.9632 1286.7046,-196.1637 1274.7148,-186.5718"/>
<polygon fill="#000000" stroke="#000000" points="1276.6987,-183.6768 1266.7035,-180.1628 1272.3258,-189.1429 1276.6987,-183.6768"/>
</g>
<!-- [root] openstack_networking_router_v2.router_1&#45;&gt;[root] provider.openstack -->
<g id="edge18" class="edge">
<title>[root] openstack_networking_router_v2.router_1&#45;&gt;[root] provider.openstack</title>
<path fill="none" stroke="#000000" d="M1365.0324,-71.9707C1263.6113,-58.3215 1127.7465,-40.0369 1043.0679,-28.6409"/>
<polygon fill="#000000" stroke="#000000" points="1043.3783,-25.1512 1033.0008,-27.2861 1042.4446,-32.0887 1043.3783,-25.1512"/>
</g>
<!-- [root] openstack_networking_subnet_v2.subnet_2&#45;&gt;[root] openstack_networking_network_v2.network_1 -->
<g id="edge19" class="edge">
<title>[root] openstack_networking_subnet_v2.subnet_2&#45;&gt;[root] openstack_networking_network_v2.network_1</title>
<path fill="none" stroke="#000000" d="M1218.7658,-143.8314C1206.212,-134.7927 1190.8717,-123.7476 1177.3609,-114.0198"/>
<polygon fill="#000000" stroke="#000000" points="1179.3866,-111.1655 1169.2261,-108.1628 1175.2964,-116.8463 1179.3866,-111.1655"/>
</g>
<!-- [root] root -->
<g id="node15" class="node">
<title>[root] root</title>
<ellipse fill="none" stroke="#000000" cx="985" cy="-306" rx="58.4896" ry="18"/>
<text text-anchor="middle" x="985" y="-302.3" font-family="Times,serif" font-size="14.00" fill="#000000">[root] root</text>
</g>
<!-- [root] root&#45;&gt;[root] null_resource.ansible&#45;provision -->
<g id="edge20" class="edge">
<title>[root] root&#45;&gt;[root] null_resource.ansible&#45;provision</title>
<path fill="none" stroke="#000000" d="M931.4901,-298.4308C854.8996,-287.5968 711.6312,-267.3309 606.149,-252.4101"/>
<polygon fill="#000000" stroke="#000000" points="606.4542,-248.9185 596.0625,-250.9833 605.4737,-255.8495 606.4542,-248.9185"/>
</g>
<!-- [root] root&#45;&gt;[root] openstack_compute_instance_v2.test&#45;network -->
<g id="edge21" class="edge">
<title>[root] root&#45;&gt;[root] openstack_compute_instance_v2.test&#45;network</title>
<path fill="none" stroke="#000000" d="M938.1242,-295.0209C898.059,-284.7096 844.6325,-268.446 830,-252 815.098,-235.2511 810.5155,-209.889 809.4213,-190.3521"/>
<polygon fill="#000000" stroke="#000000" points="812.9152,-190.0845 809.129,-180.1893 805.9181,-190.2859 812.9152,-190.0845"/>
</g>
<!-- [root] root&#45;&gt;[root] openstack_networking_port_v2.port_1 -->
<g id="edge22" class="edge">
<title>[root] root&#45;&gt;[root] openstack_networking_port_v2.port_1</title>
<path fill="none" stroke="#000000" d="M985,-287.8314C985,-280.131 985,-270.9743 985,-262.4166"/>
<polygon fill="#000000" stroke="#000000" points="988.5001,-262.4132 985,-252.4133 981.5001,-262.4133 988.5001,-262.4132"/>
</g>
<!-- [root] root&#45;&gt;[root] openstack_networking_router_interface_v2.int_1 -->
<g id="edge23" class="edge">
<title>[root] root&#45;&gt;[root] openstack_networking_router_interface_v2.int_1</title>
<path fill="none" stroke="#000000" d="M1033.8944,-295.9129C1086.1765,-285.1269 1170.4594,-267.739 1236.4151,-254.1321"/>
<polygon fill="#000000" stroke="#000000" points="1237.3343,-257.5163 1246.4208,-252.0679 1235.9199,-250.6607 1237.3343,-257.5163"/>
</g>
<!-- [root] var.pool -->
<g id="node16" class="node">
<title>[root] var.pool</title>
<ellipse fill="none" stroke="#000000" cx="1613" cy="-234" rx="76.0865" ry="18"/>
<text text-anchor="middle" x="1613" y="-230.3" font-family="Times,serif" font-size="14.00" fill="#000000">[root] var.pool</text>
</g>
<!-- [root] root&#45;&gt;[root] var.pool -->
<g id="edge24" class="edge">
<title>[root] root&#45;&gt;[root] var.pool</title>
<path fill="none" stroke="#000000" d="M1042.3298,-302.373C1141.6574,-295.6269 1352.0017,-279.3023 1528,-252 1534.6098,-250.9746 1541.4802,-249.7644 1548.3224,-248.4641"/>
<polygon fill="#000000" stroke="#000000" points="1549.1555,-251.8675 1558.2934,-246.5057 1547.8063,-244.9987 1549.1555,-251.8675"/>
</g>
</g>
</svg>
